<svg width="182" height="40" viewBox="0 0 182 40" fill="none" xmlns="http://www.w3.org/2000/svg">
<path id="Combined Shape" fill-rule="evenodd" clip-rule="evenodd" d="M42.0649 0.765374V3.88221C43.8594 1.20694 46.5959 0 50.0954 0C51.7427 0 53.0356 0.2355 54.0954 0.618187L52.9473 8.23543C51.6839 7.67729 49.8599 7.32404 48.3009 7.32404C44.7413 7.32404 42.3004 9.50006 42.3004 13.7355V29.2667H34.6242V0.765374H42.0649ZM7.26517 15.0005C7.26517 19.5009 10.236 22.8544 14.5892 22.8544C19.1191 22.8544 21.9427 19.3537 21.9427 15.0005C21.9427 10.6473 19.1191 7.1466 14.5892 7.1466C10.236 7.1466 7.26517 10.5001 7.26517 15.0005ZM7.49949 3.91201C9.35405 1.58762 12.0894 0.00035325 15.9999 0.00035325C23.8844 0.00035325 29.8249 6.44245 29.8249 15.0005C29.8249 23.5609 23.8844 30.0007 16.0305 30.0007C12.2071 30.0007 9.50006 28.5017 7.64668 26.2951V39.9988L0 40V0.76455H7.49949V3.91201ZM70.5112 22.8544C66.1863 22.8544 62.9517 19.6187 62.9517 15.0005C62.9517 10.3824 66.1863 7.1466 70.5112 7.1466C74.835 7.1466 78.099 10.3824 78.099 15.0005C78.099 19.6187 74.835 22.8544 70.5112 22.8544ZM70.5112 0.00035325C61.6564 0.00035325 55.1284 6.41184 55.1284 15.0005C55.1284 23.5892 61.6564 30.0007 70.5112 30.0007C79.3931 30.0007 85.953 23.5892 85.953 15.0005C85.953 6.41184 79.3931 0.00035325 70.5112 0.00035325ZM102.164 11.4131L104.692 11.7947C110.869 12.7367 114.311 15.5002 114.311 20.3245C114.311 26.2072 109.487 30.0011 101.222 30.0011C97.3397 30.0011 92.2518 29.2664 88.545 26.6476L91.5735 20.8249C94.0157 22.4428 96.9865 23.6191 101.281 23.6191C104.839 23.6191 106.545 22.6182 106.545 20.9426C106.545 19.5603 105.105 18.7949 101.811 18.3251L99.4863 18.0013C92.897 17.0887 89.633 14.2074 89.633 9.3537C89.633 3.50035 94.1628 0.0302617 101.664 0.0302617C106.223 0.0302617 109.781 0.881594 113.576 2.73615L110.987 8.70608C108.723 7.58863 105.105 6.41231 101.898 6.38287C98.9859 6.38287 97.5152 7.412 97.5152 8.97101C97.5152 10.6183 99.5746 11.0305 102.164 11.4131ZM133.491 22.8544C129.138 22.8544 126.167 19.5009 126.167 15.0005C126.167 10.5001 129.138 7.1466 133.491 7.1466C138.021 7.1466 140.845 10.6473 140.845 15.0005C140.845 19.3537 138.021 22.8544 133.491 22.8544ZM134.902 0.00035325C130.991 0.00035325 128.256 1.58762 126.402 3.91201V0.76455H118.902V39.9988H126.549V26.2951C128.402 28.5017 131.109 30.0007 134.933 30.0007C142.786 30.0007 148.727 23.5609 148.727 15.0005C148.727 6.44245 142.786 0.00035325 134.902 0.00035325ZM159.615 15.0005C159.615 19.3537 162.468 22.8544 166.967 22.8544C171.351 22.8544 174.321 19.5009 174.321 15.0005C174.321 10.5001 171.351 7.1466 166.967 7.1466C162.468 7.1466 159.615 10.6473 159.615 15.0005ZM174.085 3.91201V0.76455H181.586V29.2659H174.085V26.1185C172.233 28.4134 169.468 30.0007 165.555 30.0007C157.703 30.0007 151.761 23.5609 151.761 15.0005C151.761 6.44245 157.703 0.00035325 165.555 0.00035325C169.468 0.00035325 172.202 1.58762 174.085 3.91201Z" fill="#1C1335"/>
</svg>