<svg width="20" height="20" viewBox="0 0 20 20" fill="none" xmlns="http://www.w3.org/2000/svg">
<path fill-rule="evenodd" clip-rule="evenodd" d="M11.5597 2.89434C12.3588 2.89434 13.0068 2.24647 13.0068 1.44717C13.0068 0.647861 12.3588 0 11.5597 0C10.7603 0 10.1125 0.647861 10.1125 1.44717C10.1125 2.24647 10.7603 2.89434 11.5597 2.89434ZM0 17.9451L1.95757 19.9025L9.07619 12.7839L7.11861 10.8264L0 17.9451ZM18.9843 6.48069C18.9843 7.17584 18.4209 7.73919 17.7258 7.73919C17.0308 7.73919 16.4674 7.17584 16.4674 6.48069C16.4674 5.78578 17.0308 5.22231 17.7258 5.22231C18.4209 5.22231 18.9843 5.78578 18.9843 6.48069ZM17.9776 16.4851C18.7768 16.4851 19.4247 15.8372 19.4247 15.0379C19.4247 14.2386 18.7768 13.5908 17.9776 13.5908C17.1782 13.5908 16.5303 14.2386 16.5303 15.0379C16.5303 15.8372 17.1782 16.4851 17.9776 16.4851Z" fill="#B5C1CD"/>
<path fill-rule="evenodd" clip-rule="evenodd" d="M13.4245 9.18925L16.2857 13.0232L11.5021 12.9622L8.74001 16.8677L7.32024 12.2997L2.75203 10.8798L6.65769 8.11769L6.59654 3.33411L10.4305 6.19526L14.9608 4.65908L13.4245 9.18925Z" fill="#8397AB"/>
</svg>
